<mxfile host="localhost" modified="2020-05-17T17:09:01.998Z" agent="5.0 (Macintosh; Intel Mac OS X 10_15_4) AppleWebKit/537.36 (KHTML, like Gecko) Code/1.45.0 Chrome/78.0.3904.130 Electron/7.2.4 Safari/537.36" etag="zavOHO9rCFFXSb57MpZn" version="13.0.9">
    <diagram id="Sttl8mKHboSlKdve3zSI" name="Page-1">
        <mxGraphModel dx="625" dy="579" grid="1" gridSize="10" guides="1" tooltips="1" connect="1" arrows="1" fold="1" page="1" pageScale="1" pageWidth="827" pageHeight="1169" math="0" shadow="0">
            <root>
                <mxCell id="0"/>
                <mxCell id="1" parent="0"/>
                <mxCell id="52" style="edgeStyle=orthogonalEdgeStyle;rounded=0;orthogonalLoop=1;jettySize=auto;html=1;exitX=0.5;exitY=1;exitDx=0;exitDy=0;entryX=0.5;entryY=0;entryDx=0;entryDy=0;" parent="1" source="21" target="41" edge="1">
                    <mxGeometry relative="1" as="geometry"/>
                </mxCell>
                <mxCell id="21" value="&lt;b&gt;Base headers checker filter&lt;/b&gt;" style="rounded=0;whiteSpace=wrap;html=1;" parent="1" vertex="1">
                    <mxGeometry x="40" y="120" width="320" height="20" as="geometry"/>
                </mxCell>
                <mxCell id="26" value="" style="edgeStyle=orthogonalEdgeStyle;rounded=0;orthogonalLoop=1;jettySize=auto;html=1;" parent="1" source="23" target="25" edge="1">
                    <mxGeometry relative="1" as="geometry"/>
                </mxCell>
                <mxCell id="23" value="&lt;b&gt;Signature verification filter&lt;/b&gt;" style="rounded=0;whiteSpace=wrap;html=1;" parent="1" vertex="1">
                    <mxGeometry x="40" y="490" width="320" height="20" as="geometry"/>
                </mxCell>
                <mxCell id="25" value="&lt;b&gt;Authentication filter&lt;/b&gt;" style="rounded=0;whiteSpace=wrap;html=1;" parent="1" vertex="1">
                    <mxGeometry x="40" y="530" width="320" height="20" as="geometry"/>
                </mxCell>
                <mxCell id="18" value="" style="shape=flexArrow;endArrow=classic;html=1;entryX=0.5;entryY=0;entryDx=0;entryDy=0;" parent="1" edge="1">
                    <mxGeometry width="50" height="50" relative="1" as="geometry">
                        <mxPoint x="200" y="80" as="sourcePoint"/>
                        <mxPoint x="200" y="120" as="targetPoint"/>
                    </mxGeometry>
                </mxCell>
                <mxCell id="19" value="incoming HTTP request" style="edgeLabel;html=1;align=center;verticalAlign=middle;resizable=0;points=[];" parent="18" vertex="1" connectable="0">
                    <mxGeometry x="-0.6" y="1" relative="1" as="geometry">
                        <mxPoint x="-1" y="-22" as="offset"/>
                    </mxGeometry>
                </mxCell>
                <mxCell id="39" value="" style="shape=flexArrow;endArrow=classic;html=1;" parent="1" edge="1">
                    <mxGeometry width="50" height="50" relative="1" as="geometry">
                        <mxPoint x="199.5" y="550" as="sourcePoint"/>
                        <mxPoint x="200" y="590" as="targetPoint"/>
                    </mxGeometry>
                </mxCell>
                <mxCell id="40" value="authorization and controller processing" style="edgeLabel;html=1;align=center;verticalAlign=middle;resizable=0;points=[];" parent="39" vertex="1" connectable="0">
                    <mxGeometry x="-0.6" y="1" relative="1" as="geometry">
                        <mxPoint x="-0.6" y="42.01" as="offset"/>
                    </mxGeometry>
                </mxCell>
                <mxCell id="53" style="edgeStyle=orthogonalEdgeStyle;rounded=0;orthogonalLoop=1;jettySize=auto;html=1;exitX=0.5;exitY=1;exitDx=0;exitDy=0;entryX=0.5;entryY=0;entryDx=0;entryDy=0;" parent="1" source="41" target="23" edge="1">
                    <mxGeometry relative="1" as="geometry"/>
                </mxCell>
                <mxCell id="41" value="Clock discrepancy filter" style="swimlane;startSize=20;" parent="1" vertex="1">
                    <mxGeometry x="40" y="160" width="320" height="310" as="geometry"/>
                </mxCell>
                <mxCell id="54" style="edgeStyle=orthogonalEdgeStyle;rounded=1;orthogonalLoop=1;jettySize=auto;html=1;exitX=0.5;exitY=1;exitDx=0;exitDy=0;exitPerimeter=0;entryX=0.5;entryY=0;entryDx=0;entryDy=0;" parent="41" source="42" target="47" edge="1">
                    <mxGeometry relative="1" as="geometry">
                        <Array as="points">
                            <mxPoint x="105" y="210"/>
                            <mxPoint x="70" y="210"/>
                        </Array>
                    </mxGeometry>
                </mxCell>
                <mxCell id="58" value="Yes" style="edgeLabel;html=1;align=center;verticalAlign=middle;resizable=0;points=[];" parent="54" vertex="1" connectable="0">
                    <mxGeometry x="-0.8133" y="2" relative="1" as="geometry">
                        <mxPoint x="-18" y="-5" as="offset"/>
                    </mxGeometry>
                </mxCell>
                <mxCell id="55" style="edgeStyle=orthogonalEdgeStyle;rounded=1;orthogonalLoop=1;jettySize=auto;html=1;exitX=1;exitY=0.5;exitDx=0;exitDy=0;exitPerimeter=0;entryX=0.5;entryY=0;entryDx=0;entryDy=0;" parent="41" source="42" target="44" edge="1">
                    <mxGeometry relative="1" as="geometry"/>
                </mxCell>
                <mxCell id="57" value="No" style="edgeLabel;html=1;align=center;verticalAlign=middle;resizable=0;points=[];" parent="55" vertex="1" connectable="0">
                    <mxGeometry x="-0.4667" y="2" relative="1" as="geometry">
                        <mxPoint x="-14" y="-7" as="offset"/>
                    </mxGeometry>
                </mxCell>
                <mxCell id="42" value="&lt;font style=&quot;font-size: 12px&quot;&gt;Does the&lt;br&gt;&lt;font face=&quot;Courier New&quot; style=&quot;font-size: 12px&quot;&gt;Instant&lt;/font&gt;&amp;nbsp;header contain&lt;br&gt;a timestamp&amp;nbsp;which is in the interval of the current&lt;br&gt;server time&amp;nbsp;+/-&lt;br&gt;1 minute?&lt;/font&gt;" style="strokeWidth=2;html=1;shape=mxgraph.flowchart.decision;whiteSpace=wrap;spacingBottom=0;spacingTop=13;spacingLeft=1;spacingRight=1;" parent="41" vertex="1">
                    <mxGeometry x="10" y="50" width="190" height="150" as="geometry"/>
                </mxCell>
                <mxCell id="43" value="" style="endArrow=classic;html=1;entryX=0.5;entryY=0;entryDx=0;entryDy=0;entryPerimeter=0;" parent="41" target="42" edge="1">
                    <mxGeometry width="50" height="50" relative="1" as="geometry">
                        <mxPoint x="160" y="20" as="sourcePoint"/>
                        <mxPoint x="520" y="20" as="targetPoint"/>
                        <Array as="points">
                            <mxPoint x="160" y="30"/>
                            <mxPoint x="105" y="30"/>
                        </Array>
                    </mxGeometry>
                </mxCell>
                <mxCell id="44" value="Return &lt;font face=&quot;Courier New&quot;&gt;ClockDiscrepancy&lt;/font&gt;&lt;br&gt;API error" style="rounded=1;whiteSpace=wrap;html=1;absoluteArcSize=1;arcSize=14;strokeWidth=2;" parent="41" vertex="1">
                    <mxGeometry x="170" y="170" width="140" height="60" as="geometry"/>
                </mxCell>
                <mxCell id="47" value="Forward the request to the next filter" style="rounded=1;whiteSpace=wrap;html=1;absoluteArcSize=1;arcSize=14;strokeWidth=2;" parent="41" vertex="1">
                    <mxGeometry x="20" y="230" width="100" height="60" as="geometry"/>
                </mxCell>
                <mxCell id="56" style="edgeStyle=orthogonalEdgeStyle;rounded=1;orthogonalLoop=1;jettySize=auto;html=1;exitX=1;exitY=0.5;exitDx=0;exitDy=0;entryX=0.5;entryY=1;entryDx=0;entryDy=0;endArrow=classic;endFill=1;" parent="41" source="47" target="41" edge="1">
                    <mxGeometry relative="1" as="geometry">
                        <mxPoint x="160" y="300" as="targetPoint"/>
                        <Array as="points">
                            <mxPoint x="160" y="260"/>
                        </Array>
                    </mxGeometry>
                </mxCell>
            </root>
        </mxGraphModel>
    </diagram>
</mxfile>
